<?xml version="1.0" encoding="UTF-8"?>
<svg version="1.1" xmlns="http://www.w3.org/2000/svg" width="271" height="90">
<path d="M0 0 C0.33 -0.66 0.66 -1.32 1 -2 C2.9609375 -2.51953125 2.9609375 -2.51953125 5.375 -2.8125 C6.56222656 -2.97685547 6.56222656 -2.97685547 7.7734375 -3.14453125 C10 -3 10 -3 11.64819336 -2.00146484 C13.79835986 1.18203975 13.13731742 4.49459139 12.85546875 8.16796875 C12.80683182 8.96278152 12.75819489 9.7575943 12.70808411 10.57649231 C12.54934774 13.11469944 12.36870944 15.6508079 12.1875 18.1875 C12.07602841 19.90811008 11.9659848 21.62881332 11.85742188 23.34960938 C11.58817208 27.56766588 11.29927134 31.78397149 11 36 C6.33333333 36 1.66666667 36 -3 36 C-4.49660156 36.05220703 -4.49660156 36.05220703 -6.0234375 36.10546875 C-17.7591179 36.39270568 -17.7591179 36.39270568 -22 33 C-27.03673168 27.36989993 -28.18406556 21.41675932 -28 14 C-27.42408061 8.12966376 -25.32887953 4.0465613 -21 0 C-14.50960497 -3.96073104 -6.36704756 -4.24469838 0 0 Z M-17 10 C-18.52233015 14.40806588 -18.33832588 17.98502236 -16.875 22.375 C-14.76461024 25.32954567 -13.37786607 26.66456458 -10 28 C-6.84073634 27.87362945 -4.83729353 27.59806681 -2.25 25.75 C0.67694818 21.65227254 1.42515269 17.99554408 1 13 C0.05684132 9.69894461 -0.88425637 9.07045264 -3.875 7.25 C-9.51611822 4.99355271 -12.62130134 6.010519 -17 10 Z " fill="#020205" transform="translate(215,27)"/>
<path d="M0 0 C1.32 0.66 2.64 1.32 4 2 C3.85904936 3.6254308 3.71207913 5.25034051 3.5625 6.875 C3.48128906 7.77992187 3.40007812 8.68484375 3.31640625 9.6171875 C3 12 3 12 2 14 C2.845625 13.67 3.69125 13.34 4.5625 13 C11.15742085 11.08147757 15.97237311 11.70186453 22 15 C26.32713097 19.66874658 27.12498244 22.25403985 27.09765625 28.5390625 C27.09443359 29.84101562 27.09121094 31.14296875 27.08789062 32.484375 C27.07953466 33.86458399 27.07106971 35.24479232 27.0625 36.625 C27.05748501 38.01301926 27.0529221 39.40104022 27.04882812 40.7890625 C27.03700976 44.19275132 27.02053434 47.59635439 27 51 C25.35425434 51.02688151 23.70838587 51.04634123 22.0625 51.0625 C21.14597656 51.07410156 20.22945312 51.08570313 19.28515625 51.09765625 C17 51 17 51 16 50 C15.96145431 48.26469187 15.98833714 46.52784496 16.04296875 44.79296875 C16.06423828 43.73142578 16.08550781 42.66988281 16.10742188 41.57617188 C16.16053782 39.32846075 16.22552195 37.0809968 16.30273438 34.83398438 C16.32013672 33.76857422 16.33753906 32.70316406 16.35546875 31.60546875 C16.38278076 30.62731201 16.41009277 29.64915527 16.43823242 28.64135742 C15.87034965 25.21855871 14.7429487 24.06485521 12 22 C8.3324787 21.66582071 8.3324787 21.66582071 5 22 C5 22.66 5 23.32 5 24 C4.34 24 3.68 24 3 24 C3.01160156 25.27875 3.02320313 26.5575 3.03515625 27.875 C3.04454269 29.58333186 3.05364197 31.29166532 3.0625 33 C3.07087891 33.83917969 3.07925781 34.67835937 3.08789062 35.54296875 C3.10824033 40.79319339 2.76368207 45.80455662 2 51 C-1.3 51 -4.6 51 -8 51 C-8.78101082 45.57839794 -9.11342895 40.36810532 -8.94921875 34.88671875 C-8.9303511 34.15048782 -8.91148346 33.4142569 -8.89204407 32.65571594 C-8.85051344 31.11536037 -8.80581777 29.57508708 -8.75805664 28.03491211 C-8.68716717 25.67642669 -8.63316235 23.31793002 -8.58007812 20.95898438 C-8.53747751 19.45569994 -8.49389295 17.95244299 -8.44921875 16.44921875 C-8.43453049 15.74609055 -8.41984222 15.04296234 -8.40470886 14.31852722 C-8.27680078 10.6931821 -8.06598299 9.09897449 -6 6 C-5.34 6 -4.68 6 -4 6 C-3.71125 5.38125 -3.4225 4.7625 -3.125 4.125 C-2 2 -2 2 0 0 Z " fill="#020205" transform="translate(156,12)"/>
<path d="M0 0 C7.92 0 15.84 0 24 0 C26 6 26 6 25.4375 8.75 C23.64887581 11.54958569 22.13863539 12.09144765 19 13 C19 14.32 19 15.64 19 17 C20.9600281 18.63676257 20.9600281 18.63676257 23 20 C23 20.66 23 21.32 23 22 C23.66 22.33 24.32 22.66 25 23 C27.28629421 27.39429943 28.84004206 32.0647529 28 37 C25.55860325 41.51464637 22.32124835 45.96442145 17.24609375 47.546875 C12.0911347 48.58683196 5.88102323 49.29785901 0.98828125 47.09375 C-2.45572166 44.38712806 -4.55422454 41.08218953 -6 37 C-5.6875 34.125 -5.6875 34.125 -5 32 C-0.93485074 30.64495025 1.08653524 31.36346019 5 33 C6.4375 36.125 6.4375 36.125 7 39 C9.64 38.67 12.28 38.34 15 38 C15.24954005 36.56589632 15.47392642 35.12739928 15.6875 33.6875 C15.81511719 32.88699219 15.94273438 32.08648437 16.07421875 31.26171875 C16.19644465 28.96528299 16.19644465 28.96528299 14.84375 27.25 C12.45538422 25.63076896 10.67721577 25.4985205 7.8125 25.3125 C6.91144531 25.24675781 6.01039062 25.18101563 5.08203125 25.11328125 C4.39496094 25.07589844 3.70789063 25.03851563 3 25 C2.5792554 21.56391908 2.32828915 19.00857485 4.30078125 16.046875 C5.36930214 14.83299446 6.46509534 13.64244288 7.58984375 12.48046875 C9.10464271 11.03493542 9.10464271 11.03493542 10 9 C9.15695313 9.08378906 8.31390625 9.16757812 7.4453125 9.25390625 C6.34960938 9.35574219 5.25390625 9.45757812 4.125 9.5625 C3.03445312 9.66691406 1.94390625 9.77132813 0.8203125 9.87890625 C-2 10 -2 10 -4 9 C-3.6875 6.625 -3.6875 6.625 -3 4 C-2.01 3.34 -1.02 2.68 0 2 C0 1.34 0 0.68 0 0 Z " fill="#010206" transform="translate(62,15)"/>
<path d="M0 0 C0.66 0.66 1.32 1.32 2 2 C0.51780173 5.45846263 -0.94338899 7.76345536 -4 10 C-5.8726943 10.43749554 -7.76279243 10.80350482 -9.66015625 11.1171875 C-11.15687866 11.37024658 -11.15687866 11.37024658 -12.68383789 11.62841797 C-13.44817139 11.75104004 -14.21250488 11.87366211 -15 12 C-15.02505615 13.08531006 -15.0501123 14.17062012 -15.07592773 15.28881836 C-15.16983755 19.301316 -15.27009767 23.31363382 -15.37231445 27.32592773 C-15.41572573 29.06514288 -15.45739612 30.80440235 -15.49731445 32.54370117 C-15.55486768 35.03838488 -15.6186042 37.5328441 -15.68359375 40.02734375 C-15.70866249 41.2007859 -15.70866249 41.2007859 -15.73423767 42.39793396 C-15.88612829 47.88612829 -15.88612829 47.88612829 -17 49 C-18.51928038 49.07179964 -20.04167482 49.08392007 -21.5625 49.0625 C-22.38878906 49.05347656 -23.21507813 49.04445312 -24.06640625 49.03515625 C-24.70449219 49.02355469 -25.34257812 49.01195312 -26 49 C-26.80984194 44.04847505 -27.1178734 39.35047725 -27.09765625 34.31640625 C-27.0962413 33.61603745 -27.09482635 32.91566864 -27.09336853 32.19407654 C-27.08782477 29.98350534 -27.07528326 27.77303996 -27.0625 25.5625 C-27.05747771 24.05273585 -27.05291609 22.54297009 -27.04882812 21.03320312 C-27.03872981 17.35539637 -27.01914421 13.67781496 -27 10 C-31.62 10 -36.24 10 -41 10 C-41.09765625 3.84765625 -41.09765625 3.84765625 -41 2 C-39.38314911 0.38314911 -37.56365971 0.79609275 -35.328125 0.71875 C-34.35915283 0.68185059 -33.39018066 0.64495117 -32.3918457 0.60693359 C-30.83663208 0.55400146 -30.83663208 0.55400146 -29.25 0.5 C-21.61388395 0.2139326 -14.0307237 -0.15253917 -6.42578125 -0.9140625 C-4.00754886 -0.99973257 -2.26966397 -0.82083708 0 0 Z " fill="#010205" transform="translate(56,14)"/>
<path d="M0 0 C2.31058727 1.97245254 4.49540542 3.96139814 6.5625 6.1875 C6.2325 7.1775 5.9025 8.1675 5.5625 9.1875 C6.2225 9.1875 6.8825 9.1875 7.5625 9.1875 C7.2325 10.1775 6.9025 11.1675 6.5625 12.1875 C-2.69861745 12.82375998 -2.69861745 12.82375998 -5.6875 10.25 C-6.265 9.569375 -6.8425 8.88875 -7.4375 8.1875 C-11.06843708 7.22419016 -12.85313853 6.99271284 -16.4375 8.1875 C-18.65684455 11.51651683 -18.70879898 12.67543637 -18.6875 16.5625 C-18.69265625 17.49835937 -18.6978125 18.43421875 -18.703125 19.3984375 C-18.42385261 22.33079762 -17.65899016 24.52154925 -16.4375 27.1875 C-10.07076505 27.64805842 -10.07076505 27.64805842 -4.4375 25.1875 C-3.16945434 23.1539052 -3.16945434 23.1539052 -2.4375 21.1875 C4.1875 21.0625 4.1875 21.0625 7.5625 22.1875 C7.8515625 24.38671875 7.8515625 24.38671875 7.5625 27.1875 C3.73391347 32.10215495 -0.88386401 35.67788067 -7.0390625 36.90625 C-13.90568352 37.08269422 -19.04145096 36.52780032 -24.4375 32.1875 C-29.88765664 26.30706783 -29.95804056 20.67428675 -29.765625 12.9375 C-29.32099361 7.85599837 -28.30714899 4.586516 -24.4375 1.1875 C-16.76606818 -3.75201905 -8.07448894 -4.2574578 0 0 Z " fill="#020207" transform="translate(137.4375,26.8125)"/>
<path d="M0 0 C0 2.64 0 5.28 0 8 C2.64 8.33 5.28 8.66 8 9 C8 11.64 8 14.28 8 17 C5.36 17.99 2.72 18.98 0 20 C0.020625 21.36253906 0.04125 22.72507812 0.0625 24.12890625 C0.00034078 38.37527069 0.00034078 38.37527069 -2.77734375 42.88671875 C-7.54599057 47 -7.54599057 47 -11 47 C-11.33 37.43 -11.66 27.86 -12 18 C-12.99 17.67 -13.98 17.34 -15 17 C-15.33 14.36 -15.66 11.72 -16 9 C-15.01 8.34 -14.02 7.68 -13 7 C-12.67 7.33 -12.34 7.66 -12 8 C-11.67 5.36 -11.34 2.72 -11 0 C-9.54263913 -0.19491452 -8.08405407 -0.38069358 -6.625 -0.5625 C-5.81289062 -0.66691406 -5.00078125 -0.77132813 -4.1640625 -0.87890625 C-2 -1 -2 -1 0 0 Z " fill="#010105" transform="translate(245,16)"/>
<path d="M0 0 C2.33294775 -0.04241723 4.66702567 -0.04092937 7 0 C8 1 8 1 8.125 4.5 C8 8 8 8 7 9 C4.66055264 8.71269945 2.3260857 8.38063221 0 8 C0 5.36 0 2.72 0 0 Z " fill="#010207" transform="translate(96,54)"/>
<path d="M0 0 C2 2 2 2 2 4 C-2.40244869 4 -6.73309044 3.93190452 -11.125 3.625 C-12.20007812 3.55539063 -13.27515625 3.48578125 -14.3828125 3.4140625 C-15.67832031 3.20910156 -15.67832031 3.20910156 -17 3 C-17.33 2.34 -17.66 1.68 -18 1 C-15.75152519 0.63627613 -13.50113812 0.28435904 -11.25 -0.0625 C-9.99703125 -0.25972656 -8.7440625 -0.45695313 -7.453125 -0.66015625 C-4.48304492 -0.95246051 -2.71755968 -1.11115174 0 0 Z " fill="#060A0D" transform="translate(56,14)"/>
<path d="M0 0 C2 2 2 2 2.22705078 4.61376953 C2.21657715 5.69255371 2.20610352 6.77133789 2.1953125 7.8828125 C2.18886719 9.04941406 2.18242187 10.21601562 2.17578125 11.41796875 C2.15902344 12.64128906 2.14226562 13.86460938 2.125 15.125 C2.11597656 16.35605469 2.10695312 17.58710937 2.09765625 18.85546875 C2.07402548 21.90383815 2.04108054 24.95182382 2 28 C0.35 27.67 -1.3 27.34 -3 27 C-2.50886719 26.23429687 -2.01773438 25.46859375 -1.51171875 24.6796875 C0.5246743 19.72288581 0.32743152 15.42086985 0.1875 10.125 C0.17396484 9.15046875 0.16042969 8.1759375 0.14648438 7.171875 C0.11131962 4.78067137 0.0621067 2.39063025 0 0 Z " fill="#060913" transform="translate(181,35)"/>
<path d="M0 0 C2.64 0.33 5.28 0.66 8 1 C7 3 7 3 3.9375 4.125 C2.4834375 4.558125 2.4834375 4.558125 1 5 C0.34 8.96 -0.32 12.92 -1 17 C-1.33 17 -1.66 17 -2 17 C-2.05418326 14.91695462 -2.09287551 12.83350232 -2.125 10.75 C-2.14820313 9.58984375 -2.17140625 8.4296875 -2.1953125 7.234375 C-2.0103949 4.17213954 -1.60823023 2.55797249 0 0 Z " fill="#05080F" transform="translate(244,31)"/>
<path d="M0 0 C5.26371362 -0.50130606 7.9090934 0.68831371 12 4 C12 4.66 12 5.32 12 6 C12.78375 5.79375 13.5675 5.5875 14.375 5.375 C15.674375 5.189375 15.674375 5.189375 17 5 C17.66 5.66 18.32 6.32 19 7 C16.15916359 8.42041821 14.14522722 8.31452272 11 8 C9.64499081 6.68870078 8.31328657 5.35308313 7 4 C3.36456099 2.72234735 3.36456099 2.72234735 0 2 C0 1.34 0 0.68 0 0 Z " fill="#070913" transform="translate(123,31)"/>
<path d="M0 0 C0.33 0.99 0.66 1.98 1 3 C0.34 3 -0.32 3 -1 3 C-1 4.32 -1 5.64 -1 7 C-1 7.99 -1 8.98 -1 10 C-3.475 9.01 -3.475 9.01 -6 8 C-5.34 6.68 -4.68 5.36 -4 4 C-3.34 4 -2.68 4 -2 4 C-2 3.01 -2 2.02 -2 1 C-1.34 0.67 -0.68 0.34 0 0 Z " fill="#080A0F" transform="translate(82,25)"/>
<path d="M0 0 C0.66 0.33 1.32 0.66 2 1 C2 3.31 2 5.62 2 8 C2.99 7.67 3.98 7.34 5 7 C5.66 7.66 6.32 8.32 7 9 C4.69 9 2.38 9 0 9 C-0.84454356 5.62182575 -1.10844919 3.32534757 0 0 Z " fill="#05080F" transform="translate(148,53)"/>
<path d="M0 0 C0.99 0.495 0.99 0.495 2 1 C3.27536232 6.44927536 3.27536232 6.44927536 2 9 C1.34 8.67 0.68 8.34 0 8 C0 5.36 0 2.72 0 0 Z " fill="#04050E" transform="translate(242,17)"/>
<path d="" fill="#000000" transform="translate(0,0)"/>
<path d="" fill="#000000" transform="translate(0,0)"/>
</svg>
